<svg width="152" height="36" viewBox="0 0 152 36" fill="none" xmlns="http://www.w3.org/2000/svg">
<path d="M41.7305 19.1758H25.5195V17.1836H32.3555V15.7578C31.2878 15.6667 30.3633 15.4648 29.582 15.1523C28.8008 14.8333 28.1986 14.4167 27.7754 13.9023C27.3522 13.3815 27.1406 12.7826 27.1406 12.1055C27.1406 11.3698 27.4076 10.7285 27.9414 10.1816C28.4753 9.63477 29.2305 9.21484 30.207 8.92188C31.1901 8.6224 32.3294 8.47266 33.625 8.47266C34.9141 8.47266 36.0436 8.6224 37.0137 8.92188C37.9902 9.21484 38.7454 9.63477 39.2793 10.1816C39.8197 10.7285 40.0898 11.3698 40.0898 12.1055C40.0898 12.7891 39.875 13.3913 39.4453 13.9121C39.0221 14.4264 38.4167 14.8431 37.6289 15.1621C36.8477 15.4746 35.9232 15.6764 34.8555 15.7676V17.1836H41.7305V19.1758ZM27.4727 20.2891H29.9727V23.4922H39.8945V25.4844H27.4727V20.2891ZM29.7383 12.1055C29.7318 12.6654 30.0638 13.0885 30.7344 13.375C31.4049 13.6615 32.3685 13.8047 33.625 13.8047C34.8685 13.8047 35.8255 13.6615 36.4961 13.375C37.1732 13.0885 37.5117 12.6654 37.5117 12.1055C37.5117 11.5781 37.1699 11.1712 36.4863 10.8848C35.8092 10.5983 34.8555 10.4518 33.625 10.4453C32.3815 10.4518 31.4212 10.5983 30.7441 10.8848C30.0671 11.1712 29.7318 11.5781 29.7383 12.1055ZM56.8281 14.7422H59.4453V16.793H56.8281V25.8359H54.3672V8.02344H56.8281V14.7422ZM43.5273 9.50781H51.75V16.4023H46.0273V19.625C47.401 19.6185 48.6445 19.5762 49.7578 19.498C50.8711 19.4199 51.9909 19.2865 53.1172 19.0977L53.332 21.0898C52.056 21.3242 50.7799 21.4837 49.5039 21.5684C48.2344 21.653 46.75 21.6953 45.0508 21.6953H43.5469V14.4297H49.2695V11.5195H43.5273V9.50781ZM74.9727 20.8164H72.4727V8.04297H74.9727V20.8164ZM60.3633 13.6484C60.3633 12.7956 60.5781 12.0273 61.0078 11.3438C61.4375 10.6602 62.0202 10.1296 62.7559 9.75195C63.498 9.36784 64.3216 9.17578 65.2266 9.17578C66.125 9.17578 66.9453 9.36784 67.6875 9.75195C68.4297 10.1296 69.0156 10.6602 69.4453 11.3438C69.875 12.0273 70.0898 12.7956 70.0898 13.6484C70.0898 14.5143 69.875 15.2923 69.4453 15.9824C69.0156 16.666 68.4297 17.1999 67.6875 17.584C66.9453 17.9681 66.125 18.1602 65.2266 18.1602C64.3216 18.1602 63.498 17.9681 62.7559 17.584C62.0137 17.1999 61.4277 16.666 60.998 15.9824C60.5749 15.2923 60.3633 14.5143 60.3633 13.6484ZM62.8047 13.6484C62.7982 14.1302 62.8991 14.5501 63.1074 14.9082C63.3158 15.2598 63.6022 15.5299 63.9668 15.7188C64.3379 15.901 64.7578 15.9922 65.2266 15.9922C65.6823 15.9922 66.0892 15.901 66.4473 15.7188C66.8118 15.5299 67.0983 15.2598 67.3066 14.9082C67.5215 14.5501 67.6289 14.1302 67.6289 13.6484C67.6289 13.1797 67.5215 12.7695 67.3066 12.418C67.0983 12.0664 66.8118 11.7995 66.4473 11.6172C66.0827 11.4284 65.6758 11.3372 65.2266 11.3438C64.7578 11.3372 64.3379 11.4284 63.9668 11.6172C63.6022 11.7995 63.3158 12.0664 63.1074 12.418C62.8991 12.7695 62.7982 13.1797 62.8047 13.6484ZM63.0586 19.5273H65.5781V23.4922H75.4414V25.4844H63.0586V19.5273ZM83.8594 10.8164C83.8529 11.5586 83.9961 12.265 84.2891 12.9355C84.5885 13.5996 85.041 14.1921 85.6465 14.7129C86.2585 15.2337 87.0169 15.6341 87.9219 15.9141L86.5938 17.8477C85.6693 17.5417 84.875 17.099 84.2109 16.5195C83.5469 15.9401 83.0195 15.2533 82.6289 14.459C82.2318 15.377 81.6816 16.1712 80.9785 16.8418C80.2819 17.5059 79.4388 18.0039 78.4492 18.3359L77.1016 16.3828C78.0586 16.0638 78.8529 15.6081 79.4844 15.0156C80.1159 14.4232 80.5846 13.7493 80.8906 12.9941C81.1966 12.2324 81.3529 11.4284 81.3594 10.582V8.96094H83.8594V10.8164ZM79.5625 22.3594C79.5625 21.6497 79.8066 21.0378 80.2949 20.5234C80.7897 20.0026 81.4961 19.6055 82.4141 19.332C83.332 19.0586 84.4128 18.9219 85.6562 18.9219C86.8802 18.9219 87.9414 19.0586 88.8398 19.332C89.7383 19.6055 90.4316 20.0026 90.9199 20.5234C91.4082 21.0378 91.6523 21.6497 91.6523 22.3594C91.6523 23.0755 91.4082 23.6908 90.9199 24.2051C90.4316 24.7259 89.7383 25.1198 88.8398 25.3867C87.9414 25.6602 86.8802 25.7969 85.6562 25.7969C84.4128 25.7969 83.332 25.6602 82.4141 25.3867C81.4961 25.1198 80.7897 24.7259 80.2949 24.2051C79.8066 23.6908 79.5625 23.0755 79.5625 22.3594ZM82.0625 22.3594C82.056 22.8542 82.3555 23.2253 82.9609 23.4727C83.5729 23.7201 84.4714 23.8438 85.6562 23.8438C88.013 23.8438 89.1914 23.349 89.1914 22.3594C89.1914 21.8776 88.8887 21.5098 88.2832 21.2559C87.6842 21.002 86.8086 20.875 85.6562 20.875C84.4844 20.875 83.5892 21.002 82.9707 21.2559C82.3587 21.5098 82.056 21.8776 82.0625 22.3594ZM88.9766 8.02344H91.4766V12.1836H93.8789V14.2539H91.4766V18.5703H88.9766V8.02344ZM108.762 12.0273H111.164V14.0781H108.762V18.0039H106.262V8.02344H108.762V12.0273ZM95.3438 9.13672H103.273V11.1094H97.8438V15.3477C99.4779 15.3346 100.803 15.2891 101.818 15.2109C102.84 15.1328 103.84 14.9961 104.816 14.8008L105.07 16.7539C104.016 17.0013 102.912 17.1608 101.76 17.2324C100.614 17.304 98.9766 17.3398 96.8477 17.3398H95.3438V9.13672ZM97.1406 18.7461H108.762V25.582H97.1406V18.7461ZM106.301 23.6289V20.7188H99.6016V23.6289H106.301ZM126.809 17.0273H124.328V8.02344H126.809V17.0273ZM111.867 15.1133C112.818 14.8268 113.615 14.4102 114.26 13.8633C114.904 13.3099 115.383 12.6816 115.695 11.9785C116.008 11.2754 116.164 10.543 116.164 9.78125V8.41406H118.762V9.78125C118.755 10.5234 118.902 11.2266 119.201 11.8906C119.501 12.5547 119.963 13.1439 120.588 13.6582C121.219 14.1725 122.004 14.5664 122.941 14.8398L121.73 16.7539C120.734 16.4674 119.878 16.0312 119.162 15.4453C118.452 14.8594 117.889 14.1595 117.473 13.3457C117.062 14.2376 116.49 15.0026 115.754 15.6406C115.018 16.2786 114.133 16.7539 113.098 17.0664L111.867 15.1133ZM114.895 17.7891H126.828V22.6133H117.375V23.707H127.316V25.6797H114.934V20.7578H124.348V19.7227H114.895V17.7891Z" fill="#0073FA"/>
<path d="M8.05495 26.0028C7.10648 26.0026 6.18937 25.6686 5.46957 25.0613C4.74977 24.4539 4.27479 23.6133 4.13059 22.6914H0.0449219C0.199532 24.6797 1.11189 26.5373 2.59946 27.8925C4.08703 29.2477 6.04009 30.0006 8.06795 30.0006C10.0958 30.0006 12.0489 29.2477 13.5365 27.8925C15.024 26.5373 15.9364 24.6797 16.091 22.6914H11.9897C11.8452 23.615 11.3688 24.457 10.6468 25.0646C9.92481 25.6722 9.00522 26.0051 8.05495 26.0028Z" fill="#0073FA"/>
<path d="M16.0785 4H11.9355V8.00231H16.0785V4Z" fill="#41D293"/>
<path d="M8.04647 7.00781C6.45503 7.00781 4.89934 7.4719 3.5761 8.34133C2.25287 9.21077 1.22152 10.4465 0.612503 11.8923C0.00348555 13.3382 -0.15586 14.9291 0.154614 16.464C0.465089 17.9988 1.23144 19.4087 2.35676 20.5153C3.48208 21.6219 4.91582 22.3755 6.47668 22.6808C8.03754 22.9861 9.65541 22.8294 11.1257 22.2305C12.596 21.6316 13.8527 20.6175 14.7368 19.3162C15.621 18.015 16.0929 16.4853 16.0929 14.9203C16.0902 12.8226 15.2415 10.8116 13.7331 9.32833C12.2247 7.84504 10.1797 7.01052 8.04647 7.00781ZM8.04647 18.8203C7.26208 18.8203 6.49529 18.5915 5.84309 18.163C5.19088 17.7345 4.68255 17.1254 4.38238 16.4128C4.0822 15.7001 4.00368 14.916 4.15671 14.1595C4.30973 13.403 4.68744 12.7081 5.24209 12.1626C5.79674 11.6172 6.5034 11.2458 7.27272 11.0953C8.04205 10.9448 8.83948 11.022 9.56417 11.3172C10.2889 11.6124 10.9083 12.1123 11.344 12.7536C11.7798 13.395 12.0124 14.149 12.0124 14.9203C12.0111 15.9542 11.5928 16.9454 10.8493 17.6765C10.1058 18.4076 9.09789 18.8189 8.04647 18.8203Z" fill="#0073FA"/>
</svg>
