<svg width="129" height="26" viewBox="0 0 129 26" fill="none" xmlns="http://www.w3.org/2000/svg">
<path d="M41.7305 13.1831V15.1753H25.5195V13.1831H32.3555V11.7573C29.1523 11.4937 27.1406 10.1655 27.1406 8.10498C27.1406 5.87842 29.6992 4.47217 33.625 4.47217C37.5117 4.47217 40.0703 5.87842 40.0898 8.10498C40.0703 10.1753 38.0391 11.5034 34.8555 11.7573V13.1831H41.7305ZM39.8945 19.4917V21.4839H27.4727V16.2886H29.9727V19.4917H39.8945ZM33.625 6.44482C31.1641 6.44482 29.7188 7.05029 29.7383 8.10498C29.7188 9.25732 31.1641 9.8042 33.625 9.8042C36.0859 9.8042 37.5117 9.25732 37.5117 8.10498C37.5117 7.05029 36.0859 6.44482 33.625 6.44482ZM56.8281 4.02295V10.7417H59.4453V12.7925H56.8281V21.8354H54.3672V4.02295H56.8281ZM51.75 5.50732V12.4019H46.0273V15.6245C48.6152 15.6147 50.7539 15.4976 53.1172 15.0972L53.332 17.0894C50.6172 17.5776 48.1758 17.6948 45.0508 17.6948H43.5469V10.4292H49.2695V7.51904H43.5273V5.50732H51.75ZM74.9727 4.04248V16.8159H72.4727V4.04248H74.9727ZM75.4414 19.4917V21.4839H63.0586V15.5269H65.5781V19.4917H75.4414ZM65.2266 5.17529C67.9609 5.17529 70.0898 7.05029 70.0898 9.64795C70.0898 12.3042 67.9609 14.1597 65.2266 14.1597C62.4922 14.1597 60.3633 12.3042 60.3633 9.64795C60.3633 7.05029 62.4922 5.17529 65.2266 5.17529ZM65.2266 7.34326C63.8398 7.32373 62.7852 8.20264 62.8047 9.64795C62.7852 11.1323 63.8398 11.9917 65.2266 11.9917C66.5742 11.9917 67.6289 11.1323 67.6289 9.64795C67.6289 8.20264 66.5742 7.32373 65.2266 7.34326ZM83.8594 6.81592C83.8594 8.96436 85.1094 11.0347 87.9219 11.9136L86.5938 13.8472C84.709 13.2222 83.3906 12.0112 82.6289 10.4487C81.8574 12.2456 80.4805 13.6519 78.4492 14.3354L77.1016 12.3823C80.0703 11.3862 81.3398 9.02295 81.3594 6.58154V4.96045H83.8594V6.81592ZM91.4766 4.02295V8.18311H93.8789V10.2534H91.4766V14.5698H88.9766V4.02295H91.4766ZM85.6562 14.9214C89.3281 14.9214 91.6523 16.1909 91.6523 18.3589C91.6523 20.5464 89.3281 21.7964 85.6562 21.7964C81.9062 21.7964 79.5625 20.5464 79.5625 18.3589C79.5625 16.1909 81.9062 14.9214 85.6562 14.9214ZM85.6562 16.8745C83.3125 16.8745 82.043 17.3823 82.0625 18.3589C82.043 19.3745 83.3125 19.8433 85.6562 19.8433C87.9609 19.8433 89.1914 19.3745 89.1914 18.3589C89.1914 17.3823 87.9609 16.8745 85.6562 16.8745ZM108.762 4.02295V8.02686H111.164V10.0776H108.762V14.0034H106.262V4.02295H108.762ZM103.273 5.13623V7.10889H97.8438V11.3472C101.057 11.3276 102.824 11.2104 104.816 10.8003L105.07 12.7534C102.844 13.2612 100.793 13.3394 96.8477 13.3394H95.3438V5.13623H103.273ZM108.762 14.7456V21.5815H97.1406V14.7456H108.762ZM99.6016 16.7183V19.6284H106.301V16.7183H99.6016ZM126.809 4.02295V13.0269H124.328V4.02295H126.809ZM126.828 13.7886V18.6128H117.375V19.7065H127.316V21.6792H114.934V16.7573H124.348V15.7222H114.895V13.7886H126.828ZM118.762 5.78076C118.742 7.9292 120.031 9.99951 122.941 10.8394L121.73 12.7534C119.689 12.1577 118.283 10.9272 117.492 9.35498C116.672 11.0737 115.217 12.4409 113.098 13.0659L111.867 11.1128C114.836 10.2339 116.164 7.98779 116.164 5.78076V4.41357H118.762V5.78076Z" fill="#0073FA"/>
<path d="M8.05471 22.0013C7.10623 22.0012 6.18913 21.6672 5.46933 21.0598C4.74952 20.4524 4.27455 19.6118 4.13035 18.6899H0.0446777C0.199288 20.6782 1.11165 22.5358 2.59922 23.891C4.08678 25.2462 6.03985 25.9992 8.0677 25.9992C10.0956 25.9992 12.0487 25.2462 13.5362 23.891C15.0238 22.5358 15.9361 20.6782 16.0908 18.6899H11.9895C11.845 19.6135 11.3685 20.4556 10.6465 21.0632C9.92457 21.6707 9.00498 22.0036 8.05471 22.0013Z" fill="#0073FA"/>
<path d="M16.0786 -0.000488281H11.9356V4.00182H16.0786V-0.000488281Z" fill="#41D293"/>
<path d="M8.04647 3.00684C6.45503 3.00684 4.89934 3.47092 3.5761 4.34036C2.25287 5.20979 1.22152 6.44555 0.612503 7.89137C0.00348555 9.33719 -0.15586 10.9281 0.154614 12.463C0.465089 13.9979 1.23144 15.4077 2.35676 16.5143C3.48208 17.6209 4.91582 18.3745 6.47668 18.6798C8.03754 18.9851 9.65541 18.8284 11.1257 18.2295C12.596 17.6307 13.8527 16.6165 14.7368 15.3153C15.621 14.0141 16.0929 12.4843 16.0929 10.9193C16.0902 8.82164 15.2415 6.81064 13.7331 5.32735C12.2247 3.84406 10.1797 3.00954 8.04647 3.00684ZM8.04647 14.8193C7.26208 14.8193 6.49529 14.5906 5.84309 14.162C5.19088 13.7335 4.68255 13.1244 4.38238 12.4118C4.0822 11.6992 4.00368 10.915 4.15671 10.1585C4.30973 9.40198 4.68744 8.70709 5.24209 8.16167C5.79674 7.61625 6.5034 7.24481 7.27272 7.09433C8.04205 6.94385 8.83948 7.02107 9.56417 7.31625C10.2889 7.61142 10.9083 8.11129 11.344 8.75263C11.7798 9.39398 12.0124 10.148 12.0124 10.9193C12.0111 11.9532 11.5928 12.9444 10.8493 13.6755C10.1058 14.4066 9.09789 14.8179 8.04647 14.8193Z" fill="#0073FA"/>
</svg>
