<svg width="22" height="23" viewBox="0 0 22 23" fill="none" xmlns="http://www.w3.org/2000/svg">
<g id="ic_sendbird_bottombar">
<mask id="mask0_8076_23707" style="mask-type:alpha" maskUnits="userSpaceOnUse" x="0" y="0" width="22" height="23">
<rect id="Bounding box" y="0.5" width="22" height="22" fill="white"/>
</mask>
<g mask="url(#mask0_8076_23707)">
<path id="tune" d="M3.62161 18.0769C3.34661 18.0769 3.10981 17.9815 2.9112 17.7909C2.71259 17.5996 2.61328 17.3664 2.61328 17.0914C2.61328 16.8012 2.71259 16.5604 2.9112 16.3691C3.10981 16.1784 3.34661 16.0831 3.62161 16.0831H7.28828C7.57856 16.0831 7.81934 16.1784 8.01061 16.3691C8.20128 16.5604 8.29662 16.8012 8.29662 17.0914C8.29662 17.3664 8.20128 17.5996 8.01061 17.7909C7.81934 17.9815 7.57856 18.0769 7.28828 18.0769H3.62161ZM3.62161 6.91644C3.34661 6.91644 3.10981 6.82111 2.9112 6.63044C2.71259 6.43916 2.61328 6.19838 2.61328 5.90811C2.61328 5.63311 2.71259 5.39997 2.9112 5.20869C3.10981 5.01802 3.34661 4.92269 3.62161 4.92269H10.9549C11.2452 4.92269 11.486 5.01802 11.6773 5.20869C11.8679 5.39997 11.9633 5.63311 11.9633 5.90811C11.9633 6.19838 11.8679 6.43916 11.6773 6.63044C11.486 6.82111 11.2452 6.91644 10.9549 6.91644H3.62161ZM11.0466 19.9102C10.7563 19.9102 10.5159 19.8149 10.3252 19.6242C10.1339 19.4329 10.0383 19.1998 10.0383 18.9248V15.2581C10.0383 14.9678 10.1339 14.727 10.3252 14.5358C10.5159 14.3451 10.7563 14.2498 11.0466 14.2498C11.3216 14.2498 11.5584 14.3451 11.757 14.5358C11.9556 14.727 12.0549 14.9678 12.0549 15.2581V16.0831H18.3799C18.6549 16.0831 18.8918 16.1784 19.0904 16.3691C19.289 16.5604 19.3883 16.8012 19.3883 17.0914C19.3883 17.3664 19.289 17.5996 19.0904 17.7909C18.8918 17.9815 18.6549 18.0769 18.3799 18.0769H12.0549V18.9248C12.0549 19.1998 11.9556 19.4329 11.757 19.6242C11.5584 19.8149 11.3216 19.9102 11.0466 19.9102ZM7.28828 14.3414C7.01328 14.3414 6.77648 14.2458 6.57786 14.0545C6.37925 13.8639 6.27995 13.6234 6.27995 13.3331V12.5081H3.62161C3.34661 12.5081 3.10981 12.4125 2.9112 12.2212C2.71259 12.0305 2.61328 11.79 2.61328 11.4998C2.61328 11.2095 2.71259 10.9687 2.9112 10.7774C3.10981 10.5868 3.34661 10.4914 3.62161 10.4914H6.27995V9.66644C6.27995 9.37616 6.37925 9.13538 6.57786 8.94411C6.77648 8.75344 7.01328 8.6581 7.28828 8.6581C7.57856 8.6581 7.81934 8.75344 8.01061 8.94411C8.20128 9.13538 8.29662 9.37616 8.29662 9.66644V13.3331C8.29662 13.6234 8.20128 13.8639 8.01061 14.0545C7.81934 14.2458 7.57856 14.3414 7.28828 14.3414ZM11.0466 12.5081C10.7563 12.5081 10.5159 12.4125 10.3252 12.2212C10.1339 12.0305 10.0383 11.79 10.0383 11.4998C10.0383 11.2095 10.1339 10.9687 10.3252 10.7774C10.5159 10.5868 10.7563 10.4914 11.0466 10.4914H18.3799C18.6549 10.4914 18.8918 10.5868 19.0904 10.7774C19.289 10.9687 19.3883 11.2095 19.3883 11.4998C19.3883 11.79 19.289 12.0305 19.0904 12.2212C18.8918 12.4125 18.6549 12.5081 18.3799 12.5081H11.0466ZM14.7133 8.74977C14.423 8.74977 14.1825 8.65444 13.9919 8.46377C13.8006 8.27249 13.7049 8.03172 13.7049 7.74144V4.07477C13.7049 3.79977 13.8006 3.56663 13.9919 3.37536C14.1825 3.18469 14.423 3.08936 14.7133 3.08936C14.9883 3.08936 15.2251 3.18469 15.4237 3.37536C15.6223 3.56663 15.7216 3.79977 15.7216 4.07477V4.92269H18.3799C18.6549 4.92269 18.8918 5.01802 19.0904 5.20869C19.289 5.39997 19.3883 5.63311 19.3883 5.90811C19.3883 6.19838 19.289 6.43916 19.0904 6.63044C18.8918 6.82111 18.6549 6.91644 18.3799 6.91644H15.7216V7.74144C15.7216 8.03172 15.6223 8.27249 15.4237 8.46377C15.2251 8.65444 14.9883 8.74977 14.7133 8.74977Z" fill="white"/>
</g>
</g>
</svg>
