<svg width="currentWidth" height="currentHeight" viewBox="0 0 20 20" fill="currentColor" xmlns="http://www.w3.org/2000/svg">
<rect width="20" height="20" fill="white" fill-opacity="0.01"/>
<path d="M7.95829 14.7705C7.83329 14.7705 7.71524 14.7497 7.60413 14.708C7.49301 14.6663 7.38885 14.5969 7.29163 14.4997L3.70829 10.9163C3.52774 10.7358 3.44107 10.51 3.44829 10.2388C3.45496 9.96829 3.54857 9.74273 3.72913 9.56217C3.90968 9.38162 4.13551 9.29134 4.40663 9.29134C4.67718 9.29134 4.89579 9.38162 5.06246 9.56217L7.95829 12.458L14.9375 5.47884C15.1041 5.29829 15.3263 5.20801 15.6041 5.20801C15.8819 5.20801 16.1111 5.29829 16.2916 5.47884C16.4583 5.6594 16.5416 5.88495 16.5416 6.15551C16.5416 6.42662 16.4583 6.65245 16.2916 6.83301L8.62496 14.4997C8.52774 14.5969 8.42357 14.6663 8.31246 14.708C8.20135 14.7497 8.08329 14.7705 7.95829 14.7705Z" fill="current"/>
</svg>