<svg width="currentWidth" height="currentHeight" viewBox="0 0 24 24" fill="none" xmlns="http://www.w3.org/2000/svg">
<g id="Selected=True, Case=&#236;&#131;&#129;&#235;&#139;&#180;&#235;&#130;&#180;&#236;&#151;&#173;">
<path id="icon" d="M5 22C4.16667 22 3.45833 21.7083 2.875 21.125C2.29167 20.5417 2 19.8333 2 19V18C2 17.45 2.19583 16.9792 2.5875 16.5875C2.97917 16.1958 3.45 16 4 16H5V4C5 3.45 5.19583 2.97917 5.5875 2.5875C5.97917 2.19583 6.45 2 7 2H20C20.55 2 21.0208 2.19583 21.4125 2.5875C21.8042 2.97917 22 3.45 22 4V19C22 19.8333 21.7083 20.5417 21.125 21.125C20.5417 21.7083 19.8333 22 19 22H5ZM19 20C19.2833 20 19.5208 19.9042 19.7125 19.7125C19.9042 19.5208 20 19.2833 20 19V4H7V16H16C16.55 16 17.0208 16.1958 17.4125 16.5875C17.8042 16.9792 18 17.45 18 18V19C18 19.2833 18.0958 19.5208 18.2875 19.7125C18.4792 19.9042 18.7167 20 19 20ZM10 9C9.71667 9 9.47917 8.90417 9.2875 8.7125C9.09583 8.52083 9 8.28333 9 8C9 7.71667 9.09583 7.47917 9.2875 7.2875C9.47917 7.09583 9.71667 7 10 7H17C17.2833 7 17.5208 7.09583 17.7125 7.2875C17.9042 7.47917 18 7.71667 18 8C18 8.28333 17.9042 8.52083 17.7125 8.7125C17.5208 8.90417 17.2833 9 17 9H10ZM10 12C9.71667 12 9.47917 11.9042 9.2875 11.7125C9.09583 11.5208 9 11.2833 9 11C9 10.7167 9.09583 10.4792 9.2875 10.2875C9.47917 10.0958 9.71667 10 10 10H17C17.2833 10 17.5208 10.0958 17.7125 10.2875C17.9042 10.4792 18 10.7167 18 11C18 11.2833 17.9042 11.5208 17.7125 11.7125C17.5208 11.9042 17.2833 12 17 12H10Z" fill="currentColor"/>
</g>
</svg>
