<svg width="22" height="23" viewBox="0 0 22 23" fill="none" xmlns="http://www.w3.org/2000/svg">
<g id="ic_sendbird_bottombar">
<mask id="mask0_8076_23716" style="mask-type:alpha" maskUnits="userSpaceOnUse" x="0" y="0" width="22" height="23">
<rect id="Bounding box" y="0.5" width="22" height="22" fill="#D9D9D9"/>
</mask>
<g mask="url(#mask0_8076_23716)">
<path id="videocam" d="M3.73385 19.0162C3.1533 19.0162 2.66044 18.814 2.25527 18.4094C1.85072 18.0042 1.64844 17.5114 1.64844 16.9308V6.06833C1.64844 5.48777 1.85072 4.99491 2.25527 4.58974C2.66044 4.18519 3.1533 3.98291 3.73385 3.98291H14.5964C15.1769 3.98291 15.6698 4.18519 16.0749 4.58974C16.4795 4.99491 16.6818 5.48777 16.6818 6.06833V10.1246L19.4547 7.35166C19.6227 7.19888 19.8137 7.16069 20.0276 7.23708C20.2415 7.31347 20.3484 7.47388 20.3484 7.71833V15.2808C20.3484 15.5253 20.2415 15.6857 20.0276 15.7621C19.8137 15.8385 19.6227 15.8003 19.4547 15.6475L16.6818 12.8746V16.9308C16.6818 17.5114 16.4795 18.0042 16.0749 18.4094C15.6698 18.814 15.1769 19.0162 14.5964 19.0162H3.73385Z" fill="white"/>
</g>
</g>
</svg>
