<svg width="22" height="23" viewBox="0 0 22 23" fill="none" xmlns="http://www.w3.org/2000/svg">
<g id="call_end">
<mask id="mask0_8076_23720" style="mask-type:alpha" maskUnits="userSpaceOnUse" x="0" y="0" width="22" height="23">
<rect id="Bounding box" y="0.5" width="22" height="22" fill="#D9D9D9"/>
</mask>
<g mask="url(#mask0_8076_23720)">
<path id="call_end_2" d="M10.9993 7.48975C12.9701 7.48975 14.7769 7.81455 16.4196 8.46416C18.0616 9.11316 19.6007 10.1557 21.0368 11.5918C21.3576 11.8974 21.5181 12.3175 21.5181 12.8522C21.5181 13.387 21.3576 13.8147 21.0368 14.1356L18.9514 16.1752C18.7222 16.4043 18.4014 16.5266 17.9889 16.5418C17.5764 16.5571 17.2097 16.4425 16.8889 16.1981L14.5285 14.4335C14.3451 14.296 14.204 14.124 14.105 13.9174C14.0054 13.7115 13.9556 13.4939 13.9556 13.2647V10.446C13.4514 10.2932 12.9662 10.1826 12.4999 10.1142C12.0342 10.0451 11.534 10.0106 10.9993 10.0106C10.4646 10.0106 9.96439 10.0451 9.49873 10.1142C9.03245 10.1826 8.54723 10.2932 8.04306 10.446V13.2647C8.04306 13.4939 7.99356 13.7115 7.89456 13.9174C7.79495 14.124 7.65348 14.296 7.47014 14.4335L5.10973 16.1981C4.83473 16.412 4.47936 16.5189 4.04364 16.5189C3.60853 16.5189 3.27639 16.4043 3.04723 16.1752L0.961809 14.1356C0.656253 13.8147 0.499809 13.387 0.492475 12.8522C0.484531 12.3175 0.640975 11.8974 0.961809 11.5918C2.39792 10.2016 3.93731 9.1703 5.57998 8.49808C7.22203 7.82586 9.02848 7.48975 10.9993 7.48975Z" fill="white"/>
</g>
</g>
</svg>
