<svg width="22" height="22" viewBox="0 0 22 22" fill="none" xmlns="http://www.w3.org/2000/svg">
<mask id="mask0_12892_18345" style="mask-type:alpha" maskUnits="userSpaceOnUse" x="0" y="0" width="22" height="22">
<rect width="22" height="22" fill="#D9D9D9"/>
</mask>
<g mask="url(#mask0_12892_18345)">
<path d="M18.2634 20.8309L1.14466 3.71211C0.976606 3.54405 0.892578 3.33016 0.892578 3.07044C0.892578 2.81072 0.984245 2.58919 1.16758 2.40586C1.35091 2.22253 1.57641 2.13086 1.84408 2.13086C2.11113 2.13086 2.33633 2.22253 2.51966 2.40586L19.6384 19.5246C19.8217 19.6927 19.9134 19.9066 19.9134 20.1663C19.9134 20.426 19.8141 20.6552 19.6155 20.8538C19.4322 21.0218 19.207 21.1059 18.9399 21.1059C18.6722 21.1059 18.4467 21.0142 18.2634 20.8309ZM16.7051 14.0017L6.18633 3.48294H14.6197C15.2002 3.48294 15.6928 3.68522 16.0973 4.08978C16.5025 4.49494 16.7051 4.9878 16.7051 5.56836V9.62461L19.478 6.85169C19.6461 6.69892 19.837 6.66072 20.0509 6.73711C20.2648 6.8135 20.3717 6.97392 20.3717 7.21836V14.7809C20.3717 15.0253 20.2648 15.1857 20.0509 15.2621C19.837 15.3385 19.6461 15.3003 19.478 15.1475L16.7051 12.3746V14.0017ZM3.61966 3.48294L16.6822 16.5684C16.6822 17.1031 16.4683 17.5614 16.0405 17.9434C15.6127 18.3253 15.1315 18.5163 14.5967 18.5163H3.73425C3.15369 18.5163 2.66083 18.314 2.25566 17.9094C1.85111 17.5043 1.64883 17.0114 1.64883 16.4309V5.56836C1.64883 5.03364 1.84377 4.55239 2.23366 4.12461C2.62294 3.69683 3.08494 3.48294 3.61966 3.48294Z" fill="#FA4655"/>
</g>
</svg>
