<svg width="24" height="24" viewBox="0 0 24 24" fill="none" xmlns="http://www.w3.org/2000/svg">
<g id="ic_lnb">
<g id="Vector">
<path fill-rule="evenodd" clip-rule="evenodd" d="M14.0246 14.3127C14.6123 13.7427 15.3993 13.4246 16.2181 13.4262C16.8605 13.4274 17.4827 13.6254 18.0038 13.9871C18.5266 13.6265 19.1503 13.4305 19.7936 13.4317C20.6125 13.4333 21.3984 13.7545 21.984 14.327M14.0246 14.3127C13.7328 14.5957 13.5006 14.9343 13.3418 15.3084C13.183 15.6826 13.1008 16.0848 13.1 16.4913C13.0992 16.8977 13.1799 17.3003 13.3372 17.6751C13.4944 18.0495 13.7249 18.3886 14.0151 18.6725L14.0161 18.6734L17.3694 21.9678C17.7193 22.3115 18.2799 22.3118 18.6302 21.9685L21.9787 18.6859C22.2696 18.4032 22.501 18.0652 22.6593 17.6917C22.818 17.3175 22.9001 16.9153 22.9007 16.5088C22.9014 16.1023 22.8206 15.6999 22.6632 15.3251C22.5058 14.9505 22.2746 14.6109 21.984 14.327" fill="white"/>
<path fill-rule="evenodd" clip-rule="evenodd" d="M17.6605 6.21616C19.0618 7.41156 19.8606 8.94119 20.062 10.5073C20.1254 11.0003 20.5764 11.3485 21.0694 11.2851C21.5624 11.2217 21.9107 10.7706 21.8473 10.2776C21.5867 8.25173 20.5574 6.32132 18.8287 4.84673C15.2554 1.79929 9.73592 1.58159 5.87894 4.31736C2.10884 6.99257 1.00835 11.7378 3.31006 15.5481L2.14581 19.0408C2.04373 19.3471 2.11347 19.6845 2.32857 19.9252C2.54368 20.1659 2.8712 20.2729 3.18692 20.2057L7.59252 19.2684C8.50552 19.6777 9.47208 19.9566 10.4638 20.0966C10.956 20.1661 11.4113 19.8234 11.4808 19.3312C11.5503 18.8391 11.2076 18.3838 10.7154 18.3143C9.80474 18.1857 8.91962 17.9162 8.09184 17.5154C7.91184 17.4282 7.70794 17.4035 7.51233 17.4451L4.35086 18.1178L5.15344 15.7101C5.24192 15.4446 5.20191 15.1531 5.04518 14.9213C3.01398 11.9173 3.76557 8.02419 6.92045 5.78543M6.92045 5.78543C10.1154 3.51933 14.7238 3.7117 17.6605 6.21616L6.92045 5.78543Z" fill="white"/>
</g>
</g>
</svg>
