<svg width="24" height="24" viewBox="0 0 24 24" fill="none" xmlns="http://www.w3.org/2000/svg">
<g id="diagnosis">
<mask id="mask0_8007_15790" style="mask-type:alpha" maskUnits="userSpaceOnUse" x="0" y="0" width="24" height="24">
<rect id="Bounding box" width="24" height="24" fill="#D9D9D9"/>
</mask>
<g mask="url(#mask0_8007_15790)">
<path id="Vector" d="M10.59 19.2054C9.58684 19.0638 8.61184 18.7669 7.7 18.3254L3 19.3254L4.3 15.4254C1.976 11.9884 2.874 7.55341 6.4 5.05141C9.926 2.55041 14.99 2.75541 18.245 5.53141C19.81 6.86641 20.724 8.59641 20.955 10.3924" stroke="#066AE5" stroke-width="1.8" stroke-linecap="round" stroke-linejoin="round"/>
<path id="Vector_2" d="M18.0001 21.3253L21.3501 18.0413C21.5556 17.842 21.719 17.6035 21.8307 17.3399C21.9425 17.0764 22.0003 16.7931 22.0007 16.5069C22.0012 16.2206 21.9443 15.9372 21.8334 15.6732C21.7225 15.4093 21.5599 15.1703 21.3551 14.9703C20.9373 14.5616 20.3763 14.3323 19.7918 14.3312C19.2074 14.3301 18.6455 14.5573 18.2261 14.9643L18.0021 15.1843L17.7791 14.9643C17.3613 14.5559 16.8006 14.3268 16.2163 14.3257C15.6321 14.3246 15.0705 14.5516 14.6511 14.9583C14.4456 15.1576 14.2821 15.396 14.1703 15.6595C14.0585 15.923 14.0006 16.2063 14 16.4925C13.9994 16.7788 14.0562 17.0623 14.167 17.3262C14.2778 17.5902 14.4404 17.8292 14.6451 18.0293L18.0001 21.3253Z" fill="#066AE5" stroke="#066AE5" stroke-width="1.8" stroke-linecap="round" stroke-linejoin="round"/>
</g>
</g>
</svg>
