<svg width="21" height="21" viewBox="0 0 21 21" fill="none" xmlns="http://www.w3.org/2000/svg">
<path fill-rule="evenodd" clip-rule="evenodd" d="M3.2444 3.24408C3.56984 2.91864 4.09748 2.91864 4.42291 3.24408L14.923 13.7442C14.9692 13.7813 15.0119 13.8237 15.0502 13.8714L17.7562 16.5774C18.0817 16.9028 18.0817 17.4305 17.7562 17.7559C17.4308 18.0814 16.9032 18.0814 16.5777 17.7559L14.2564 15.4346C13.0973 16.0316 11.808 16.3415 10.4976 16.3333C7.11923 16.3323 4.38492 14.4274 2.28575 10.9287C2.12741 10.6648 2.12741 10.3352 2.28575 10.0713C3.17693 8.58595 4.18288 7.38329 5.3136 6.49179L3.2444 4.42259C2.91897 4.09715 2.91897 3.56951 3.2444 3.24408ZM6.50211 7.68029C5.6089 8.34901 4.76577 9.28085 3.98122 10.5C5.82567 13.3676 8.00129 14.6667 10.5003 14.6667H10.5058C11.3656 14.6723 12.214 14.5056 13.0021 14.1803L11.5782 12.7564C11.2448 12.9158 10.877 13.0008 10.5004 13.0009C9.8373 13.001 9.20136 12.7377 8.73243 12.2689C8.26349 11.8002 7.99999 11.1643 7.99987 10.5013C7.9998 10.1244 8.08484 9.75623 8.24436 9.42255L6.50211 7.68029ZM9.88345 11.0616C9.8923 11.0714 9.90139 11.0809 9.91073 11.0902C9.92 11.0995 9.92946 11.1085 9.93911 11.1173L9.88345 11.0616ZM10.4982 6.33333C10.0451 6.33216 9.59307 6.37687 9.149 6.46676C8.69792 6.55808 8.25821 6.26643 8.16689 5.81535C8.07558 5.36426 8.36723 4.92455 8.81831 4.83323C9.37229 4.72109 9.93619 4.66528 10.5014 4.66667L10.5025 4.66667L10.5003 5.5V4.66667L10.5014 4.66667C13.8805 4.66707 16.6154 6.57206 18.7149 10.0713C18.8732 10.3352 18.8732 10.6648 18.7149 10.9287C18.134 11.8969 17.5045 12.7444 16.8243 13.4641C16.5081 13.7986 15.9807 13.8134 15.6462 13.4973C15.3118 13.1811 15.2969 12.6537 15.613 12.3192C16.1006 11.8034 16.5701 11.198 17.0194 10.4999C15.175 7.63243 12.9994 6.33333 10.5003 6.33333L10.4982 6.33333Z" fill="#A8AEBD"/>
</svg>
