<svg width="58" height="58" viewBox="0 0 58 58" fill="none" xmlns="http://www.w3.org/2000/svg">
<path id="Vector" d="M22.1 22.1L35.9 35.9M35.9 22.1L22.1 35.9M2 29C2 32.5457 2.69838 36.0567 4.05525 39.3325C5.41213 42.6082 7.40093 45.5847 9.90812 48.0919C12.4153 50.5991 15.3918 52.5879 18.6675 53.9447C21.9433 55.3016 25.4543 56 29 56C32.5457 56 36.0567 55.3016 39.3325 53.9447C42.6082 52.5879 45.5847 50.5991 48.0919 48.0919C50.5991 45.5847 52.5879 42.6082 53.9447 39.3325C55.3016 36.0567 56 32.5457 56 29C56 25.4543 55.3016 21.9433 53.9447 18.6675C52.5879 15.3918 50.5991 12.4153 48.0919 9.90812C45.5847 7.40093 42.6082 5.41213 39.3325 4.05525C36.0567 2.69838 32.5457 2 29 2C25.4543 2 21.9433 2.69838 18.6675 4.05525C15.3918 5.41213 12.4153 7.40093 9.90812 9.90812C7.40093 12.4153 5.41213 15.3918 4.05525 18.6675C2.69838 21.9433 2 25.4543 2 29Z" stroke="#434956" stroke-width="3.5" stroke-linecap="round" stroke-linejoin="round"/>
</svg>
