<svg width="currentWidth" height="currentHeight" viewBox="0 0 22 22" fill="none" xmlns="http://www.w3.org/2000/svg">
<g id="Badge/gender">
<path d="M0 4C0 1.79086 1.79086 0 4 0H18C20.2091 0 22 1.79086 22 4V18C22 20.2091 20.2091 22 18 22H4C1.79086 22 0 20.2091 0 18V4Z" fill="#F15282" fill-opacity="0.1"/>
<path id="female" d="M10.2999 12.5533C9.4332 12.3913 8.72195 11.9867 8.16617 11.3397C7.61093 10.6927 7.33331 9.94312 7.33331 9.09109C7.33331 8.0993 7.68881 7.25297 8.39979 6.55209C9.11078 5.8507 9.97751 5.5 11 5.5C12.0225 5.5 12.8892 5.8507 13.6002 6.55209C14.3112 7.25297 14.6666 8.0993 14.6666 9.09109C14.6666 9.94312 14.389 10.6927 13.8338 11.3397C13.278 11.9867 12.5668 12.3913 11.7 12.5533V13.8469H12.3505C12.5393 13.8469 12.7004 13.9116 12.8337 14.041C12.9671 14.1704 13.0337 14.327 13.0337 14.5107C13.0337 14.694 12.9671 14.8503 12.8337 14.9797C12.7004 15.1091 12.5393 15.1738 12.3505 15.1738H11.7V15.8206C11.7 16.0038 11.6307 16.163 11.492 16.2981C11.3528 16.4327 11.1888 16.5 11 16.5C10.8112 16.5 10.6472 16.4327 10.5079 16.2981C10.3693 16.163 10.2999 16.0038 10.2999 15.8206V15.1738H9.64948C9.46067 15.1738 9.29959 15.1091 9.16625 14.9797C9.0329 14.8503 8.96623 14.694 8.96623 14.5107C8.96623 14.327 9.0329 14.1704 9.16625 14.041C9.29959 13.9116 9.46067 13.8469 9.64948 13.8469H10.2999V12.5533ZM11 11.2589C11.6336 11.2589 12.1697 11.0488 12.6081 10.6285C13.0471 10.2076 13.2665 9.68456 13.2665 9.05926C13.2665 8.45518 13.0471 7.93754 12.6081 7.50635C12.1697 7.07465 11.6336 6.85879 11 6.85879C10.3663 6.85879 9.83029 7.07465 9.39186 7.50635C8.9529 7.93754 8.73341 8.45518 8.73341 9.05926C8.73341 9.68456 8.9529 10.2076 9.39186 10.6285C9.83029 11.0488 10.3663 11.2589 11 11.2589Z" fill="#F15282"/>
</g>
</svg>
