<svg width="22" height="22" viewBox="0 0 22 22" fill="none" xmlns="http://www.w3.org/2000/svg">
<g id="Badge/gender">
<path d="M0 4C0 1.79086 1.79086 0 4 0H18C20.2091 0 22 1.79086 22 4V18C22 20.2091 20.2091 22 18 22H4C1.79086 22 0 20.2091 0 18V4Z" fill="#0073FA" fill-opacity="0.1"/>
<path id="male" d="M9.47244 15.8891C8.53524 15.8891 7.7408 15.563 7.08911 14.9108C6.43693 14.2592 6.11084 13.4647 6.11084 12.5275C6.11084 11.5908 6.43693 10.7964 7.08911 10.1442C7.7408 9.49248 8.53524 9.16664 9.47244 9.16664C9.80831 9.16664 10.1366 9.2126 10.4573 9.30451C10.7785 9.39593 11.0765 9.54357 11.3512 9.74744L13.7045 7.39417H12.8641C12.691 7.39417 12.5407 7.33062 12.4131 7.20351C12.286 7.07591 12.2224 6.92557 12.2224 6.75251C12.2224 6.57944 12.286 6.42935 12.4131 6.30224C12.5407 6.17464 12.691 6.11084 12.8641 6.11084H15.2474C15.4205 6.11084 15.5706 6.17464 15.6977 6.30224C15.8253 6.42935 15.8891 6.57944 15.8891 6.75251V9.13584C15.8891 9.30891 15.8253 9.45924 15.6977 9.58684C15.5706 9.71395 15.4205 9.77751 15.2474 9.77751C15.0744 9.77751 14.924 9.71395 14.7964 9.58684C14.6693 9.45924 14.6058 9.30891 14.6058 9.13584V8.28077L12.2525 10.6333C12.4461 10.9183 12.5913 11.2214 12.6881 11.5426C12.7849 11.8634 12.8333 12.1916 12.8333 12.5275C12.8333 13.4647 12.5075 14.2592 11.8558 14.9108C11.2036 15.563 10.4092 15.8891 9.47244 15.8891ZM9.47244 10.45C8.89164 10.45 8.40006 10.6512 7.99771 11.0535C7.59535 11.4559 7.39417 11.9472 7.39417 12.5275C7.39417 13.1083 7.59535 13.5999 7.99771 14.0022C8.40006 14.4046 8.89164 14.6058 9.47244 14.6058C10.0528 14.6058 10.5441 14.4046 10.9464 14.0022C11.3488 13.5999 11.55 13.1083 11.55 12.5275C11.55 11.9472 11.3488 11.4559 10.9464 11.0535C10.5441 10.6512 10.0528 10.45 9.47244 10.45Z" fill="#0073FA" fill-opacity="0.9"/>
</g>
</svg>
