<svg width="20" height="21" viewBox="0 0 20 21" fill="none" xmlns="http://www.w3.org/2000/svg">
<g id="ic_sendbird_bottombar" opacity="0.8">
<mask id="mask0_8007_23169" style="mask-type:alpha" maskUnits="userSpaceOnUse" x="0" y="0" width="20" height="21">
<rect id="Bounding box" y="0.5" width="20" height="20" fill="white"/>
</mask>
<g mask="url(#mask0_8007_23169)">
<path id="report" d="M7.58398 18.1649C7.33398 18.1649 7.09454 18.1163 6.86565 18.019C6.63621 17.9218 6.43121 17.7899 6.25065 17.6232L2.87565 14.2482C2.70898 14.0677 2.57704 13.8627 2.47982 13.6332C2.3826 13.4043 2.33398 13.1649 2.33398 12.9149V8.08154C2.33398 7.83154 2.3826 7.59182 2.47982 7.36238C2.57704 7.13349 2.70898 6.92877 2.87565 6.74821L6.25065 3.37321C6.43121 3.20654 6.63621 3.0746 6.86565 2.97738C7.09454 2.88015 7.33398 2.83154 7.58398 2.83154H12.4173C12.6673 2.83154 12.907 2.88015 13.1365 2.97738C13.3654 3.0746 13.5701 3.20654 13.7507 3.37321L17.1257 6.74821C17.2923 6.92877 17.4243 7.13349 17.5215 7.36238C17.6187 7.59182 17.6673 7.83154 17.6673 8.08154V12.9149C17.6673 13.1649 17.6187 13.4043 17.5215 13.6332C17.4243 13.8627 17.2923 14.0677 17.1257 14.2482L13.7507 17.6232C13.5701 17.7899 13.3654 17.9218 13.1365 18.019C12.907 18.1163 12.6673 18.1649 12.4173 18.1649H7.58398ZM10.0007 14.7899C10.2507 14.7899 10.4659 14.6996 10.6465 14.519C10.827 14.3385 10.9173 14.1232 10.9173 13.8732C10.9173 13.6093 10.827 13.3904 10.6465 13.2165C10.4659 13.0432 10.2507 12.9565 10.0007 12.9565C9.75065 12.9565 9.53537 13.0432 9.35482 13.2165C9.17426 13.3904 9.08398 13.6093 9.08398 13.8732C9.08398 14.1232 9.17426 14.3385 9.35482 14.519C9.53537 14.6996 9.75065 14.7899 10.0007 14.7899ZM10.0007 11.4774C10.2507 11.4774 10.459 11.394 10.6257 11.2274C10.7923 11.0607 10.8757 10.8524 10.8757 10.6024V7.10238C10.8757 6.86627 10.7923 6.66488 10.6257 6.49821C10.459 6.33154 10.2507 6.24821 10.0007 6.24821C9.75065 6.24821 9.54232 6.33154 9.37565 6.49821C9.20898 6.66488 9.12565 6.86627 9.12565 7.10238V10.6024C9.12565 10.8524 9.20898 11.0607 9.37565 11.2274C9.54232 11.394 9.75065 11.4774 10.0007 11.4774Z" fill="white"/>
</g>
</g>
</svg>
