<svg width="14" height="14" viewBox="0 0 14 14" fill="none" xmlns="http://www.w3.org/2000/svg">
<g id="ic_style">
<path id="Vector" d="M9.76778 2C8.80127 2 8.10809 2.47747 7.65674 2.95448C7.34157 3.28756 6.65459 3.28543 6.33833 2.9534C6.06181 2.65129 5.73271 2.41153 5.37007 2.248C5.00744 2.08446 4.61845 2.00039 4.22561 2.00065C2.2937 2.00065 0.694564 3.70585 1.04575 6.25771C1.34313 8.41861 3.07975 10.2579 5.57312 12.1595C6.41375 12.8006 7.57971 12.8009 8.42036 12.1599C9.44107 11.3814 10.3354 10.6128 11.0565 9.829C12.0949 8.6948 12.7715 7.53374 12.9486 6.25619C13.2988 3.7052 11.6997 2 9.76778 2Z" fill="#00B380"/>
</g>
</svg>
