<svg width="22" height="22" viewBox="0 0 22 22" fill="none" xmlns="http://www.w3.org/2000/svg">
<mask id="mask0_12892_18339" style="mask-type:alpha" maskUnits="userSpaceOnUse" x="0" y="0" width="22" height="22">
<rect width="22" height="22" fill="#D9D9D9"/>
</mask>
<g mask="url(#mask0_12892_18339)">
<path d="M16.613 13.7958L15.1464 12.3291C15.2686 12.1152 15.3719 11.9014 15.4562 11.6875C15.5399 11.4736 15.6047 11.2444 15.6505 11C15.7116 10.7555 15.8339 10.5493 16.0172 10.3812C16.2005 10.2132 16.4068 10.1291 16.6359 10.1291C16.9568 10.1291 17.2205 10.2397 17.427 10.461C17.633 10.6828 17.7054 10.9389 17.6443 11.2291C17.5679 11.7027 17.4417 12.1534 17.2657 12.5812C17.0903 13.009 16.8727 13.4139 16.613 13.7958ZM13.8172 10.9541L8.11094 5.24788V4.39997C8.15677 3.65136 8.45866 3.01336 9.0166 2.48597C9.57394 1.95919 10.2422 1.6958 11.0214 1.6958C11.8464 1.6958 12.5491 1.98608 13.1297 2.56663C13.7102 3.14719 14.0005 3.84997 14.0005 4.67497V10.1291C14.0005 10.2819 13.9816 10.4271 13.9437 10.5646C13.9052 10.7021 13.863 10.8319 13.8172 10.9541ZM17.4609 20.0062L1.92344 4.46872C1.7401 4.30066 1.64844 4.0828 1.64844 3.81513C1.64844 3.54808 1.7401 3.32288 1.92344 3.13955C2.10677 2.95622 2.33227 2.86455 2.59994 2.86455C2.86699 2.86455 3.08455 2.95622 3.2526 3.13955L18.7901 18.6541C18.9734 18.8375 19.0651 19.0627 19.0651 19.3297C19.0651 19.5974 18.9734 19.8229 18.7901 20.0062C18.6068 20.1896 18.3816 20.2812 18.1145 20.2812C17.8469 20.2812 17.629 20.1896 17.4609 20.0062ZM10.0359 18.5854V16.7291C8.55399 16.5305 7.30519 15.9231 6.28952 14.9068C5.27324 13.8911 4.64288 12.6652 4.39844 11.2291C4.3526 10.9389 4.43266 10.6828 4.6386 10.461C4.84516 10.2397 5.11649 10.1291 5.4526 10.1291C5.66649 10.1291 5.8651 10.2132 6.04844 10.3812C6.23177 10.5493 6.34635 10.7555 6.39219 11C6.60608 12.1 7.14477 13.013 8.00827 13.739C8.87116 14.4644 9.87552 14.8271 11.0214 14.8271C11.5714 14.8271 12.0948 14.7391 12.5916 14.5631C13.0878 14.3877 13.5345 14.1396 13.9318 13.8187L15.3755 15.2396C14.9019 15.6368 14.3864 15.9616 13.8291 16.214C13.2712 16.4657 12.6714 16.6375 12.0297 16.7291V18.5854C12.0297 18.8604 11.934 19.0972 11.7428 19.2958C11.5521 19.4944 11.3116 19.5937 11.0214 19.5937C10.7464 19.5937 10.5135 19.4944 10.3229 19.2958C10.1316 19.0972 10.0359 18.8604 10.0359 18.5854Z" fill="#FA4655"/>
</g>
</svg>
