<svg width="22" height="23" viewBox="0 0 22 23" fill="none" xmlns="http://www.w3.org/2000/svg">
<g id="ic_sendbird_bottombar">
<mask id="mask0_8076_23712" style="mask-type:alpha" maskUnits="userSpaceOnUse" x="0" y="0" width="22" height="23">
<rect id="Bounding box" y="0.5" width="22" height="22" fill="#D9D9D9"/>
</mask>
<g mask="url(#mask0_8076_23712)">
<path id="keyboard_voice" d="M11.001 13.5854C10.176 13.5854 9.47724 13.2988 8.90463 12.7256C8.3314 12.1529 8.04479 11.4541 8.04479 10.6291V5.17497C8.04479 4.34997 8.3314 3.64719 8.90463 3.06663C9.47724 2.48608 10.176 2.1958 11.001 2.1958C11.826 2.1958 12.5252 2.48608 13.0984 3.06663C13.671 3.64719 13.9573 4.34997 13.9573 5.17497V10.6291C13.9573 11.4541 13.671 12.1529 13.0984 12.7256C12.5252 13.2988 11.826 13.5854 11.001 13.5854ZM11.001 20.0937C10.726 20.0937 10.4892 19.9944 10.2906 19.7958C10.092 19.5972 9.99271 19.3604 9.99271 19.0854V17.2291C8.52604 17.0305 7.2809 16.4231 6.25729 15.4068C5.23368 14.3911 4.60729 13.1652 4.37813 11.7291C4.33229 11.4389 4.40868 11.1828 4.60729 10.961C4.8059 10.7397 5.07326 10.6291 5.40938 10.6291C5.63854 10.6291 5.84479 10.7132 6.02812 10.8812C6.21146 11.0493 6.32604 11.2555 6.37187 11.5C6.58576 12.6 7.12446 13.513 7.98796 14.239C8.85085 14.9644 9.85521 15.3271 11.001 15.3271C12.1469 15.3271 13.1512 14.9644 14.0141 14.239C14.8776 13.513 15.4163 12.6 15.6302 11.5C15.676 11.2555 15.7906 11.0493 15.974 10.8812C16.1573 10.7132 16.3712 10.6291 16.6156 10.6291C16.9365 10.6291 17.1962 10.7397 17.3948 10.961C17.5934 11.1828 17.6698 11.4389 17.624 11.7291C17.3948 13.1652 16.7684 14.3911 15.7448 15.4068C14.7212 16.4231 13.476 17.0305 12.0094 17.2291V19.0854C12.0094 19.3604 11.9101 19.5972 11.7115 19.7958C11.5128 19.9944 11.276 20.0937 11.001 20.0937Z" fill="white"/>
</g>
</g>
</svg>
