<svg width="currentWidth" height="currentHeight" viewBox="0 0 24 24" fill="none" xmlns="http://www.w3.org/2000/svg">
<g id="Selected=True, Case=&#236;&#131;&#129;&#237;&#146;&#136;&#234;&#180;&#128;&#235;&#166;&#172;">
<g id="icon">
<path d="M3.65611 3.98033C4.01243 3.62401 4.4957 3.42383 4.99961 3.42383H8.99961C9.50352 3.42383 9.98679 3.62401 10.3431 3.98033C10.6994 4.33664 10.8996 4.81992 10.8996 5.32383V9.32383C10.8996 9.82774 10.6994 10.311 10.3431 10.6673C9.98679 11.0236 9.50352 11.2238 8.99961 11.2238H4.99961C4.4957 11.2238 4.01243 11.0236 3.65611 10.6673C3.29979 10.311 3.09961 9.82774 3.09961 9.32383V5.32383C3.09961 4.81992 3.29979 4.33664 3.65611 3.98033Z" fill="currentColor"/>
<path d="M13.6561 3.98033C14.0124 3.62401 14.4957 3.42383 14.9996 3.42383H18.9996C19.5035 3.42383 19.9868 3.62401 20.3431 3.98033C20.6994 4.33665 20.8996 4.81992 20.8996 5.32383V9.32383C20.8996 9.82774 20.6994 10.311 20.3431 10.6673C19.9868 11.0237 19.5035 11.2238 18.9996 11.2238H14.9996C14.4957 11.2238 14.0124 11.0236 13.6561 10.6673C13.2998 10.311 13.0996 9.82774 13.0996 9.32383V5.32383C13.0996 4.81992 13.2998 4.33664 13.6561 3.98033Z" fill="currentColor"/>
<path d="M3.65611 13.9803C4.01243 13.624 4.4957 13.4238 4.99961 13.4238H8.99961C9.50352 13.4238 9.98679 13.624 10.3431 13.9803C10.6994 14.3366 10.8996 14.8199 10.8996 15.3238V19.3238C10.8996 19.8277 10.6994 20.311 10.3431 20.6673C9.98679 21.0237 9.50352 21.2238 8.99961 21.2238H4.99961C4.4957 21.2238 4.01243 21.0237 3.65611 20.6673C3.29979 20.311 3.09961 19.8277 3.09961 19.3238V15.3238C3.09961 14.8199 3.29979 14.3366 3.65611 13.9803Z" fill="currentColor"/>
<path d="M13.6561 13.9803C14.0124 13.624 14.4957 13.4238 14.9996 13.4238H18.9996C19.5035 13.4238 19.9868 13.624 20.3431 13.9803C20.6994 14.3366 20.8996 14.8199 20.8996 15.3238V19.3238C20.8996 19.8277 20.6994 20.311 20.3431 20.6673C19.9868 21.0237 19.5035 21.2238 18.9996 21.2238H14.9996C14.4957 21.2238 14.0124 21.0237 13.6561 20.6673C13.2998 20.311 13.0996 19.8277 13.0996 19.3238V15.3238C13.0996 14.8199 13.2998 14.3366 13.6561 13.9803Z" fill="currentColor"/>
</g>
</g>
</svg>
