<svg width="currentWidth" height="currentHeight" viewBox="0 0 24 24" fill="none" xmlns="http://www.w3.org/2000/svg">
<g id="Selected=True, Case=&#237;&#148;&#132;&#235;&#161;&#156;&#237;&#149;&#132;&#234;&#180;&#128;&#235;&#166;&#172;">
<g id="icon">
<path d="M9.80695 8.00532C10.3707 7.32585 11.1746 7.09961 11.9996 7.09961C12.8246 7.09961 13.6286 7.32585 14.1923 8.00532C14.7237 8.64588 14.8996 9.52593 14.8996 10.4996C14.8996 11.4733 14.7237 12.3533 14.1923 12.9939C14.1218 13.0788 14.0476 13.1567 13.97 13.2279C13.4272 13.7264 12.7215 13.8996 11.9996 13.8996C11.1746 13.8996 10.3707 13.6734 9.80695 12.9939C9.27552 12.3533 9.09961 11.4733 9.09961 10.4996C9.09961 9.52593 9.27552 8.64588 9.80695 8.00532Z" fill="currentColor"/>
<path fill-rule="evenodd" clip-rule="evenodd" d="M3.09961 5.49961C3.09961 4.17413 4.17413 3.09961 5.49961 3.09961H18.4996C19.8251 3.09961 20.8996 4.17413 20.8996 5.49961V18.4996C20.8996 19.8251 19.8251 20.8996 18.4996 20.8996H17.9395C17.9301 20.8998 17.9208 20.8998 17.9115 20.8996H6.088C6.07868 20.8998 6.06933 20.8998 6.05996 20.8996H5.49961C4.17413 20.8996 3.09961 19.8251 3.09961 18.4996V5.49961ZM7.98264 15.835C7.1972 16.2058 6.55873 16.7262 6.08155 17.4168C5.74114 17.908 5.49735 18.4654 5.33807 19.0776C5.08516 19.0071 4.89961 18.775 4.89961 18.4996V5.49961C4.89961 5.16824 5.16824 4.89961 5.49961 4.89961H18.4996C18.831 4.89961 19.0996 5.16824 19.0996 5.49961V18.4996C19.0996 18.7749 18.9142 19.0069 18.6614 19.0776C18.5626 18.698 18.4314 18.3396 18.2649 18.005C18.2556 17.9854 18.2459 17.9659 18.2358 17.9463C17.7035 16.9128 16.8774 16.1917 15.7915 15.7339C14.7663 15.2996 13.5166 15.1052 12.0632 15.0997L12.0003 15.0996C10.4098 15.0996 9.05838 15.327 7.98264 15.835Z" fill="currentColor"/>
</g>
</g>
</svg>
