<svg width="currentWidth" height="currentHeight" viewBox="0 0 24 24" fill="none" xmlns="http://www.w3.org/2000/svg">
<g id="Selected=True, Case=&#236;&#157;&#188;&#236;&#160;&#149;&#234;&#180;&#128;&#235;&#166;&#172;">
<path id="icon" fill-rule="evenodd" clip-rule="evenodd" d="M8.21104 2.8532C9.41217 2.35568 10.6995 2.09961 11.9996 2.09961C13.2997 2.09961 14.5871 2.35568 15.7882 2.8532C16.9893 3.35072 18.0807 4.07995 19 4.99925C19.9193 5.91855 20.6485 7.00992 21.146 8.21104C21.6435 9.41217 21.8996 10.6995 21.8996 11.9996C21.8996 13.2997 21.6435 14.5871 21.146 15.7882C20.6485 16.9893 19.9193 18.0807 19 19C18.0807 19.9193 16.9893 20.6485 15.7882 21.146C14.5871 21.6435 13.2997 21.8996 11.9996 21.8996C10.6995 21.8996 9.41217 21.6435 8.21104 21.146C7.00992 20.6485 5.91855 19.9193 4.99925 19C4.07995 18.0807 3.35072 16.9893 2.8532 15.7882C2.35568 14.5871 2.09961 13.2997 2.09961 11.9996C2.09961 10.6995 2.35568 9.41217 2.8532 8.21104C3.35072 7.00992 4.07995 5.91855 4.99925 4.99925C5.91855 4.07995 7.00992 3.35072 8.21104 2.8532ZM11.9996 6.09961C12.4967 6.09961 12.8996 6.50255 12.8996 6.99961V11.9803C12.9023 12.109 12.8773 12.2371 12.8266 12.3553C12.7602 12.5102 12.6496 12.6481 12.4989 12.7486L9.49894 14.7486C9.08536 15.0243 8.52658 14.9125 8.25086 14.4989C7.97514 14.0854 8.0869 13.5266 8.50047 13.2509L11.0996 11.5181V6.99961C11.0996 6.50255 11.5026 6.09961 11.9996 6.09961Z" fill="currentColor"/>
</g>
</svg>
