<svg width="currentWidth" height="currentHeight" viewBox="0 0 24 24" fill="none" xmlns="http://www.w3.org/2000/svg">
<path fill-rule="evenodd" clip-rule="evenodd" d="M12 3C7.02944 3 3 7.02944 3 12C3 16.9706 7.02944 21 12 21C16.9706 21 21 16.9706 21 12C21 7.02944 16.9706 3 12 3ZM17.2654 9.93137C17.7207 9.50867 17.7472 8.79685 17.3245 8.34148C16.9018 7.8861 16.19 7.85962 15.7346 8.28232L10.3182 13.3101L8.31703 11.1959C7.88991 10.7447 7.17787 10.7251 6.72664 11.1522C6.27541 11.5793 6.25586 12.2914 6.68298 12.7426L9.45006 15.6659C9.87423 16.114 10.5802 16.1369 11.0324 15.7171L17.2654 9.93137Z" fill="currentColor"/>
</svg>
