<svg width="currentWidth" height="currentHeight" viewBox="0 0 24 24" fill="none" xmlns="http://www.w3.org/2000/svg">
<path fill-rule="evenodd" clip-rule="evenodd" d="M12 3C7.02944 3 3 7.02944 3 12C3 16.9706 7.02944 21 12 21C16.9706 21 21 16.9706 21 12C21 7.02944 16.9706 3 12 3ZM13.125 15.7501C13.125 16.3714 12.6213 16.8751 12 16.8751C11.3787 16.8751 10.875 16.3714 10.875 15.7501L10.875 11.2501C10.875 10.6288 11.3787 10.1251 12 10.1251C12.6213 10.1251 13.125 10.6288 13.125 11.2501L13.125 15.7501ZM13.125 8.24988C13.125 8.8712 12.6213 9.37488 12 9.37488C11.3787 9.37488 10.875 8.8712 10.875 8.24988C10.875 7.62856 11.3787 7.12488 12 7.12488C12.6213 7.12488 13.125 7.62856 13.125 8.24988Z" fill="currentColor"/>
</svg>
