<svg width="currentWidth" height="currentHeight" viewBox="0 0 24 24" fill="none" xmlns="http://www.w3.org/2000/svg">
<path fill-rule="evenodd" clip-rule="evenodd" d="M12 3C7.02944 3 3 7.02944 3 12C3 16.9706 7.02944 21 12 21C16.9706 21 21 16.9706 21 12C21 7.02944 16.9706 3 12 3ZM10.875 8.2499C10.875 7.62858 11.3787 7.1249 12 7.1249C12.6213 7.1249 13.125 7.62858 13.125 8.2499V12.7499C13.125 13.3712 12.6213 13.8749 12 13.8749C11.3787 13.8749 10.875 13.3712 10.875 12.7499V8.2499ZM10.875 15.7501C10.875 15.1288 11.3787 14.6251 12 14.6251C12.6213 14.6251 13.125 15.1288 13.125 15.7501C13.125 16.3714 12.6213 16.8751 12 16.8751C11.3787 16.8751 10.875 16.3714 10.875 15.7501Z" fill="currentColor"/>
</svg>
